<svg xmlns="http://www.w3.org/2000/svg" viewBox="0 0 511.19 511.19">
  <title>tani-svg</title>
  <g id="e806c634-b649-4a91-b6cd-c5d3a0828fb4" data-name="Layer 2">
    <g id="eac9a886-49b4-4e61-bab7-a45dbc097ca9" data-name="Layer 1">
      <rect width="511.19" height="511.19" rx="255.6" fill="none"/>
      <path d="M371.7,377.06a167.43,167.43,0,0,1-83.33,43.37V398.35a212.63,212.63,0,0,1,3.29-31.89C303.79,364.5,338.26,361.05,371.7,377.06ZM153.22,257.4C134.77,247.27,113,242.54,88,243.26c-.3,4.07-.45,8.19-.45,12.33A167.43,167.43,0,0,0,92.46,296C129.26,290.17,146.83,268,153.22,257.4Zm-13.39-21.55c.21-10.5-1.2-29.32-10.92-51.42a7.38,7.38,0,0,1-.68-1.53,147.74,147.74,0,0,0-11.94-21.31,166.55,166.55,0,0,0-26.6,67.24C107.88,228.49,124.63,230.81,139.83,235.85Zm34.81-127.53a168.39,168.39,0,0,0-49.27,41.08,167.91,167.91,0,0,1,12.52,20.36C149,160.87,170.5,139.88,174.64,108.32Zm21.65,192.07a121.81,121.81,0,0,0-25.38-30.79c-1.84-1.58-3.72-3.07-5.65-4.49-8.06,12.75-28.59,37.55-68.75,44.76a167.55,167.55,0,0,0,32.31,56C174.13,352.37,192.15,311.54,196.29,300.39ZM144,183.17c10.6,26.47,10.69,48.44,10,58.37a116.11,116.11,0,0,1,12.83,7.12l.12.08a122.2,122.2,0,0,1,13.44,9.93c.43.37.81.76,1.24,1.14,11.55-16.89,41.39-70.56,36.44-168A167.26,167.26,0,0,0,189.67,101C188,145,156.56,173.52,144,183.17ZM186,345.06l-10,10.31a110,110,0,0,1-36,22.08,167.5,167.5,0,0,0,82.8,42.95v-22c0-.6-.36-41.78-17.95-81.48A137,137,0,0,1,186,345.06Zm6.11-74.89a155.85,155.85,0,0,1,26.6,42.11c8.5-7,23.32-22,35.17-47.81,14.9-32.49,27.73-88.7,9.68-176.72-2.63-.13-5.28-.19-7.93-.19a169,169,0,0,0-23.21,1.6C238.42,196.56,204.28,253.5,192.08,270.17ZM309.58,96.41a166.24,166.24,0,0,0-31-7.28,424.34,424.34,0,0,1,8.44,74C297.16,150.68,310,128.49,309.58,96.41Zm53.22,29.8a167.88,167.88,0,0,0-38.75-24.12c-1.39,46.78-28.22,74.1-37.33,82-4.16,91.52-47.25,131.09-62.54,142.31a240.64,240.64,0,0,1,12.95,71.92v24.27a168.14,168.14,0,0,0,18.47,1,170.76,170.76,0,0,0,18.33-1V398.35c0-3.13.47-65.33,33.66-113.71C304.88,267.48,296.45,186.77,362.8,126.21Zm-42.42,142.4a126.33,126.33,0,0,1,10.32-9.94,119.37,119.37,0,0,1,38-22c-2.69-15-5-50.71,26.5-74.67a167.46,167.46,0,0,0-21.62-26.07C322.32,181.94,318.68,240.67,320.38,268.61Zm-13.17,46.24a199.74,199.74,0,0,0-12.45,36.54c17.55-2.21,53.16-3.45,87.44,14.67h0a167.51,167.51,0,0,0,25.83-39.73C366.66,305.06,319.77,312.31,307.21,314.85Zm99.57-33.72c-14.39,2.68-25.78,11.53-32.9,18.61a145.4,145.4,0,0,1,39.76,13.09,167.73,167.73,0,0,0,8.12-32.06A46.73,46.73,0,0,0,406.78,281.13Zm-24.25-48.5a157,157,0,0,1,39-3.86,166.23,166.23,0,0,0-18.7-54.26C379.25,193.48,380.41,220.25,382.53,232.63Zm40.65,10.62c-33.55-1-61.43,7.81-83.08,26.4a121,121,0,0,0-24.37,29.09,196.5,196.5,0,0,1,40.68-1.23c6.26-7.81,23-25.93,47.58-30.56a62.46,62.46,0,0,1,19.29-.58c.24-3.56.36-7.16.36-10.78Q423.64,249.37,423.18,243.25Z" fill="#be8449"/>
    </g>
  </g>
</svg>
